<svg width="20" height="20" viewBox="0 0 20 20" fill="none" xmlns="http://www.w3.org/2000/svg">
<path d="M7.83364 13.3333H2.50016C1.57969 13.3333 0.833496 12.5872 0.833496 11.6667V9.91308C0.833496 9.69533 0.876146 9.47975 0.959029 9.2785L3.53767 3.01604C3.66625 2.70379 3.97055 2.5 4.30824 2.5H18.3335C18.7937 2.5 19.1668 2.8731 19.1668 3.33333V11.6667C19.1668 12.1269 18.7937 12.5 18.3335 12.5H15.432C15.1612 12.5 14.9073 12.6316 14.7512 12.8528L10.2067 19.2908C10.0879 19.459 9.86408 19.5153 9.67991 19.4232L8.16819 18.6673C7.29181 18.2292 6.83922 17.2395 7.08095 16.29L7.83364 13.3333ZM14.1668 11.1771V4.16667H4.86632L2.50016 9.91308V11.6667H7.83364C8.92091 11.6667 9.717 12.6908 9.44883 13.7445L8.69608 16.7012C8.64775 16.8911 8.73825 17.089 8.91358 17.1767L9.4645 17.4521L13.3896 11.8917C13.5978 11.5966 13.864 11.3548 14.1668 11.1771ZM15.8335 10.8333H17.5002V4.16667H15.8335V10.8333Z" fill="#4F4F4F"/>
</svg>
