<svg width="21" height="21" viewBox="0 0 21 21" fill="none" xmlns="http://www.w3.org/2000/svg">
<path d="M10.4998 2.36401C15.0998 2.36401 18.8332 6.09735 18.8332 10.6973C18.8332 15.2973 15.0998 19.0307 10.4998 19.0307C5.89984 19.0307 2.1665 15.2973 2.1665 10.6973C2.1665 6.09735 5.89984 2.36401 10.4998 2.36401ZM10.4998 17.364C14.1832 17.364 17.1665 14.3807 17.1665 10.6973C17.1665 7.01401 14.1832 4.03068 10.4998 4.03068C6.8165 4.03068 3.83317 7.01401 3.83317 10.6973C3.83317 14.3807 6.8165 17.364 10.4998 17.364ZM11.3332 10.6973H13.8332L10.4998 14.0307L7.1665 10.6973H9.6665V7.36401H11.3332V10.6973Z" fill="#4F4F4F"/>
</svg>
