<svg width="28" height="29" viewBox="0 0 28 29" fill="none" xmlns="http://www.w3.org/2000/svg">
<mask id="mask0_1695_720" style="mask-type:alpha" maskUnits="userSpaceOnUse" x="0" y="0" width="28" height="29">
<path d="M0 0H28V28.4307H0V0Z" fill="white"/>
</mask>
<g mask="url(#mask0_1695_720)">
<path fill-rule="evenodd" clip-rule="evenodd" d="M14 0C21.7321 0 28 6.36429 28 14.2154C28 22.0658 21.7321 28.4308 14 28.4308C6.26786 28.4308 0 22.0658 0 14.2154C0 6.36429 6.26786 0 14 0Z" fill="#2775CA"/>
</g>
<path fill-rule="evenodd" clip-rule="evenodd" d="M11.3757 24.0988C11.3757 24.4332 11.1178 24.6232 10.7993 24.5222C6.56634 23.1511 3.49731 19.1208 3.49731 14.3655C3.49731 9.61027 6.56634 5.57989 10.7993 4.20875C11.1178 4.10843 11.3757 4.29775 11.3757 4.63214V5.4576C11.3757 5.6802 11.2057 5.94222 10.9969 6.01475C7.64784 7.26344 5.24875 10.5302 5.24875 14.3598C5.24875 18.1894 7.64784 21.4569 10.9969 22.7049C11.2057 22.7831 11.3757 23.0393 11.3757 23.2627V24.0988Z" fill="white"/>
<path fill-rule="evenodd" clip-rule="evenodd" d="M14.8729 21.0273C14.8729 21.2728 14.6753 21.4734 14.4338 21.4734H13.5607C13.3192 21.4734 13.1216 21.2728 13.1216 21.0273V19.6227C11.2109 19.3608 10.2779 18.2735 10.0252 16.7964C9.98115 16.5452 10.1787 16.3168 10.4314 16.3168H11.4306C11.6392 16.3168 11.815 16.4675 11.8589 16.679C12.0457 17.5598 12.5452 18.2344 14.0768 18.2344C15.2078 18.2344 16.0096 17.5933 16.0096 16.6349C16.0096 15.6757 15.5372 15.3135 13.8792 15.0345C11.4306 14.7001 10.2723 13.9474 10.2723 11.9963C10.2723 10.4912 11.3924 9.32074 13.1272 9.06971V7.69275C13.1272 7.44737 13.3249 7.24658 13.5663 7.24658H14.4394C14.6809 7.24658 14.8784 7.44737 14.8784 7.69275V9.1088C16.2894 9.36564 17.1843 10.179 17.4754 11.528C17.5302 11.7848 17.3326 12.0241 17.0747 12.0241H16.1521C15.9545 12.0241 15.7899 11.8902 15.7296 11.6952C15.4825 10.8371 14.8784 10.4693 13.8297 10.4693C12.6714 10.4693 12.0729 11.0377 12.0729 11.8348C12.0729 12.6765 12.4135 13.0999 14.1924 13.3624C16.5968 13.6968 17.8379 14.3935 17.8379 16.4733C17.8379 18.0508 16.6848 19.3274 14.8784 19.6227V21.0273H14.8729Z" fill="white"/>
<path fill-rule="evenodd" clip-rule="evenodd" d="M17.2009 24.5224C16.8827 24.6233 16.6245 24.4333 16.6245 24.099V23.2741C16.6245 23.0288 16.7728 22.8004 17.0033 22.7164C20.3523 21.4677 22.7514 18.2009 22.7514 14.3713C22.7514 10.5417 20.3523 7.2749 17.0033 6.0262C16.7947 5.94802 16.6245 5.69182 16.6245 5.46841V4.6436C16.6245 4.30921 16.8827 4.11423 17.2009 4.21956C21.4338 5.5915 24.5029 9.62173 24.5029 14.3769C24.4976 19.1208 21.4338 23.1456 17.2009 24.5224Z" fill="white"/>
</svg>
