<svg width="20" height="21" viewBox="0 0 20 21" fill="none" xmlns="http://www.w3.org/2000/svg">
<path d="M12.5 19.425L8.25 15.175L9.65 13.775L12.5 16.625L18.15 10.975L19.55 12.375L12.5 19.425ZM18 9.5H16V4.5H14V7.5H4V4.5H2V18.5H8V20.5H2C1.45 20.5 0.979167 20.3042 0.5875 19.9125C0.195833 19.5208 0 19.05 0 18.5V4.5C0 3.95 0.195833 3.47917 0.5875 3.0875C0.979167 2.69583 1.45 2.5 2 2.5H6.175C6.35833 1.91667 6.71667 1.4375 7.25 1.0625C7.78333 0.6875 8.36667 0.5 9 0.5C9.66667 0.5 10.2625 0.6875 10.7875 1.0625C11.3125 1.4375 11.6667 1.91667 11.85 2.5H16C16.55 2.5 17.0208 2.69583 17.4125 3.0875C17.8042 3.47917 18 3.95 18 4.5V9.5ZM9 4.5C9.28333 4.5 9.52083 4.40417 9.7125 4.2125C9.90417 4.02083 10 3.78333 10 3.5C10 3.21667 9.90417 2.97917 9.7125 2.7875C9.52083 2.59583 9.28333 2.5 9 2.5C8.71667 2.5 8.47917 2.59583 8.2875 2.7875C8.09583 2.97917 8 3.21667 8 3.5C8 3.78333 8.09583 4.02083 8.2875 4.2125C8.47917 4.40417 8.71667 4.5 9 4.5Z" fill="#4F4F4F"/>
</svg>
