<svg width="20" height="20" viewBox="0 0 20 20" fill="none" xmlns="http://www.w3.org/2000/svg">
<path d="M12.1667 6.66686H17.5002C18.4207 6.66686 19.1668 7.41305 19.1668 8.3335V10.0872C19.1668 10.3048 19.1242 10.5204 19.0413 10.7218L16.4627 16.9842C16.3341 17.2964 16.0297 17.5002 15.6921 17.5002H1.66683C1.2066 17.5002 0.833496 17.1271 0.833496 16.6668V8.3335C0.833496 7.87329 1.2066 7.50019 1.66683 7.50019H4.56836C4.83914 7.50019 5.09302 7.36864 5.24917 7.14743L9.79366 0.709381C9.91241 0.541157 10.1362 0.4849 10.3204 0.576988L11.8322 1.33284C12.7085 1.77104 13.1611 2.76069 12.9194 3.71021L12.1667 6.66686ZM5.8335 8.82308V15.8335H15.134L17.5002 10.0872V8.3335H12.1667C11.0794 8.3335 10.2833 7.30932 10.5515 6.25568L11.3042 3.29904C11.3526 3.10913 11.2621 2.91119 11.0867 2.82356L10.5358 2.54809L6.61079 8.10857C6.40254 8.40358 6.13634 8.64542 5.8335 8.82308ZM4.16683 9.16684H2.50016V15.8335H4.16683V9.16684Z" fill="#4F4F4F"/>
</svg>
