<svg width="26" height="24" viewBox="0 0 26 24" fill="none" xmlns="http://www.w3.org/2000/svg">
<g clip-path="url(#clip0_1577_3821)">
<path d="M18.4999 10C18.4999 8.4087 17.8728 6.88258 16.7565 5.75736C15.6402 4.63214 14.1262 4 12.5475 4C10.9689 4 9.45485 4.63214 8.33856 5.75736C7.22227 6.88258 6.59515 8.4087 6.59515 10V18H18.4999V10ZM20.484 18.667L20.8809 19.2C20.9361 19.2743 20.9698 19.3626 20.9781 19.4551C20.9863 19.5476 20.9689 19.6406 20.9277 19.7236C20.8865 19.8067 20.8232 19.8765 20.7448 19.9253C20.6665 19.9741 20.5762 20 20.484 20H4.61102C4.5189 20 4.4286 19.9741 4.35024 19.9253C4.27188 19.8765 4.20855 19.8067 4.16736 19.7236C4.12616 19.6406 4.10872 19.5476 4.11699 19.4551C4.12527 19.3626 4.15893 19.2743 4.2142 19.2L4.61102 18.667V10C4.61102 7.87827 5.44719 5.84344 6.93557 4.34315C8.42396 2.84285 10.4426 2 12.5475 2C14.6524 2 16.6711 2.84285 18.1595 4.34315C19.6479 5.84344 20.484 7.87827 20.484 10V18.667ZM10.0674 21H15.0277C15.0277 21.663 14.7664 22.2989 14.3013 22.7678C13.8361 23.2366 13.2053 23.5 12.5475 23.5C11.8898 23.5 11.2589 23.2366 10.7938 22.7678C10.3287 22.2989 10.0674 21.663 10.0674 21Z" fill="black"/>
</g>
<circle cx="22" cy="4" r="4" fill="#EB3173"/>
<defs>
<clipPath id="clip0_1577_3821">
<rect width="23.8095" height="24" fill="white" transform="translate(0.642822)"/>
</clipPath>
</defs>
</svg>
