<svg width="17" height="22" viewBox="0 0 17 22" fill="none" xmlns="http://www.w3.org/2000/svg">
<path d="M14.4999 8C14.4999 6.4087 13.8728 4.88258 12.7565 3.75736C11.6402 2.63214 10.1262 2 8.54753 2C6.96886 2 5.45485 2.63214 4.33856 3.75736C3.22227 4.88258 2.59515 6.4087 2.59515 8V16H14.4999V8ZM16.484 16.667L16.8809 17.2C16.9361 17.2743 16.9698 17.3626 16.9781 17.4551C16.9863 17.5476 16.9689 17.6406 16.9277 17.7236C16.8865 17.8067 16.8232 17.8765 16.7448 17.9253C16.6665 17.9741 16.5762 18 16.484 18H0.611022C0.518903 18 0.428604 17.9741 0.350243 17.9253C0.271882 17.8765 0.208555 17.8067 0.167358 17.7236C0.126161 17.6406 0.108722 17.5476 0.116995 17.4551C0.125268 17.3626 0.158925 17.2743 0.214197 17.2L0.611022 16.667V8C0.611022 5.87827 1.44719 3.84344 2.93557 2.34315C4.42396 0.842855 6.44264 0 8.54753 0C10.6524 0 12.6711 0.842855 14.1595 2.34315C15.6479 3.84344 16.484 5.87827 16.484 8V16.667ZM6.06737 19H11.0277C11.0277 19.663 10.7664 20.2989 10.3013 20.7678C9.83615 21.2366 9.20531 21.5 8.54753 21.5C7.88975 21.5 7.25891 21.2366 6.79379 20.7678C6.32867 20.2989 6.06737 19.663 6.06737 19Z" fill="black"/>
</svg>
