<svg width="20" height="16" viewBox="0 0 20 16" fill="none" xmlns="http://www.w3.org/2000/svg">
<path d="M5.50251 6.33342L8.3335 4.01713V11.983L5.50251 9.66675H2.50016V6.33342H5.50251ZM1.66683 11.3334H4.90757L9.31966 14.9433C9.39408 15.0042 9.48733 15.0374 9.5835 15.0374C9.81358 15.0374 10.0002 14.8509 10.0002 14.6208V1.37932C10.0002 1.28314 9.96691 1.18992 9.906 1.11547C9.76025 0.937375 9.49775 0.911125 9.31966 1.05684L4.90757 4.66672H1.66683C1.2066 4.66672 0.833496 5.03982 0.833496 5.50006V10.5001C0.833496 10.9603 1.2066 11.3334 1.66683 11.3334ZM19.1668 8C19.1668 10.7433 17.9617 13.2052 16.052 14.8852L14.8706 13.7037C16.48 12.3281 17.5002 10.2832 17.5002 8C17.5002 5.7168 16.48 3.67191 14.8706 2.29631L16.052 1.11482C17.9617 2.79473 19.1668 5.25663 19.1668 8ZM15.0002 8C15.0002 6.40692 14.2552 4.9879 13.0946 4.07227L11.9037 5.2632C12.7679 5.86546 13.3335 6.86667 13.3335 8C13.3335 9.13333 12.7679 10.1345 11.9037 10.7367L13.0946 11.9277C14.2552 11.0121 15.0002 9.593 15.0002 8Z" fill="#4F4F4F"/>
</svg>
